<?xml version="1.0" encoding="UTF-8" standalone="no"?>
<!-- Created with Inkscape (http://www.inkscape.org/) -->

<svg
   width="193mm"
   height="391mm"
   viewBox="0 0 193 391"
   version="1.1"
   id="svg1"
   sodipodi:docname="double portable bottom.svg"
   inkscape:version="1.3 (0e150ed, 2023-07-21)"
   xmlns:inkscape="http://www.inkscape.org/namespaces/inkscape"
   xmlns:sodipodi="http://sodipodi.sourceforge.net/DTD/sodipodi-0.dtd"
   xmlns="http://www.w3.org/2000/svg"
   xmlns:svg="http://www.w3.org/2000/svg">
  <sodipodi:namedview
     id="namedview1"
     pagecolor="#ffffff"
     bordercolor="#000000"
     borderopacity="0.25"
     inkscape:showpageshadow="2"
     inkscape:pageopacity="0.0"
     inkscape:pagecheckerboard="0"
     inkscape:deskcolor="#d1d1d1"
     inkscape:document-units="mm"
     inkscape:zoom="0.47728588"
     inkscape:cx="274.46863"
     inkscape:cy="727.02759"
     inkscape:window-width="1392"
     inkscape:window-height="891"
     inkscape:window-x="0"
     inkscape:window-y="37"
     inkscape:window-maximized="0"
     inkscape:current-layer="layer1" />
  <defs
     id="defs1">
    <rect
       x="241.99285"
       y="701.61685"
       width="261.48221"
       height="112.0638"
       id="rect40" />
    <rect
       x="241.99285"
       y="701.61685"
       width="261.48221"
       height="112.0638"
       id="rect41" />
  </defs>
  <g
     inkscape:label="Bottom"
     inkscape:groupmode="layer"
     id="layer1"
     style="display:inline"
     transform="translate(0,1.0874027)">
    <rect
       style="fill:none;fill-opacity:1;stroke:#0000ff;stroke-width:0.0352778;stroke-dasharray:none;stroke-opacity:1"
       id="rect9"
       width="192.96567"
       height="390.96567"
       x="0.017166801"
       y="-1.070236"
       ry="43.004524" />
    <ellipse
       cx="168.74974"
       cy="23.162851"
       stroke="#ff0000"
       fill="transparent"
       style="display:inline;fill:none;stroke:#0000ff;stroke-width:0.0352778;stroke-miterlimit:4;stroke-dasharray:none;stroke-opacity:1"
       id="circle1003-4-2-92"
       rx="2.2056272"
       ry="2.206136" />
    <ellipse
       cx="168.74974"
       cy="365.66284"
       stroke="#ff0000"
       fill="transparent"
       style="display:inline;fill:none;stroke:#0000ff;stroke-width:0.0352778;stroke-miterlimit:4;stroke-dasharray:none;stroke-opacity:1"
       id="circle1003-4-2-92-5"
       rx="2.2056272"
       ry="2.206136" />
    <ellipse
       cx="24.249744"
       cy="365.66284"
       stroke="#ff0000"
       fill="transparent"
       style="fill:none;stroke:#0000ff;stroke-width:0.0352778;stroke-miterlimit:4;stroke-dasharray:none;stroke-opacity:1"
       id="circle1003-4-2-9"
       rx="2.2056272"
       ry="2.206136" />
    <path
       id="path1-5-1-0"
       style="display:inline;fill:#ff0000;fill-opacity:1;stroke:none;stroke-width:0.12087;stroke-dasharray:none;stroke-opacity:1"
       inkscape:label="Outer"
       d="m 96.499998,213.973 a 79.439568,79.439568 0 0 0 -79.4396,79.4396 79.439568,79.439568 0 0 0 79.4396,79.43959 A 79.439568,79.439568 0 0 0 175.9396,293.4126 79.439568,79.439568 0 0 0 96.499998,213.973 Z m 0,16.4884 a 63.951347,63.951347 0 0 1 63.951652,63.95165 63.951347,63.951347 0 0 1 -63.951652,63.95114 63.951347,63.951347 0 0 1 -63.95114,-63.95114 63.951347,63.951347 0 0 1 63.95114,-63.95165 z" />
    <path
       id="path1-5-1"
       style="display:inline;fill:#ff0000;fill-opacity:1;stroke:none;stroke-width:0.121;stroke-dasharray:none;stroke-opacity:1"
       inkscape:label="Outer"
       d="M 96.499997,13.972791 A 79.439568,79.439568 0 0 0 17.060404,93.412386 79.439568,79.439568 0 0 0 96.499997,172.85198 79.439568,79.439568 0 0 0 175.9396,93.412386 79.439568,79.439568 0 0 0 96.499997,13.972791 Z m 0,16.488399 A 63.951347,63.951347 0 0 1 160.45165,94.412842 63.951347,63.951347 0 0 1 96.499997,158.36398 63.951347,63.951347 0 0 1 32.548864,94.412842 63.951347,63.951347 0 0 1 96.499997,30.46119 Z" />
    <ellipse
       cx="24.249744"
       cy="23.162851"
       stroke="#ff0000"
       fill="transparent"
       style="fill:none;stroke:#0000ff;stroke-width:0.0352778;stroke-miterlimit:4;stroke-dasharray:none;stroke-opacity:1"
       id="circle1003-4-2"
       rx="2.2056272"
       ry="2.206136" />
    <text
       xml:space="preserve"
       style="font-size:7.7611px;font-family:sans-serif;-inkscape-font-specification:'sans-serif, Normal';fill:#000000;stroke:none;stroke-width:0.121;stroke-opacity:1"
       x="63.209534"
       y="85.175026"
       id="text1"><tspan
         sodipodi:role="line"
         id="tspan1"
         style="stroke-width:0.121;stroke:none;stroke-opacity:1"
         x="63.209534"
         y="85.175026">Raster 1mm</tspan></text>
  </g>
</svg>
