<?xml version="1.0" encoding="UTF-8" standalone="no"?>
<!-- Created with Inkscape (http://www.inkscape.org/) -->

<svg
   width="193mm"
   height="391mm"
   viewBox="0 0 193 391"
   version="1.1"
   id="svg1"
   sodipodi:docname="single portable.svg"
   inkscape:version="1.3 (0e150ed, 2023-07-21)"
   xmlns:inkscape="http://www.inkscape.org/namespaces/inkscape"
   xmlns:sodipodi="http://sodipodi.sourceforge.net/DTD/sodipodi-0.dtd"
   xmlns="http://www.w3.org/2000/svg"
   xmlns:svg="http://www.w3.org/2000/svg">
  <sodipodi:namedview
     id="namedview1"
     pagecolor="#ffffff"
     bordercolor="#000000"
     borderopacity="0.25"
     inkscape:showpageshadow="2"
     inkscape:pageopacity="0.0"
     inkscape:pagecheckerboard="0"
     inkscape:deskcolor="#d1d1d1"
     inkscape:document-units="mm"
     inkscape:zoom="0.76903968"
     inkscape:cx="330.28205"
     inkscape:cy="336.78366"
     inkscape:window-width="1392"
     inkscape:window-height="1027"
     inkscape:window-x="0"
     inkscape:window-y="25"
     inkscape:window-maximized="0"
     inkscape:current-layer="layer1" />
  <defs
     id="defs1">
    <rect
       x="241.99285"
       y="701.61685"
       width="261.48221"
       height="112.0638"
       id="rect40" />
    <rect
       x="241.99285"
       y="701.61685"
       width="261.48221"
       height="112.0638"
       id="rect41" />
  </defs>
  <g
     inkscape:label="Bottom"
     inkscape:groupmode="layer"
     id="layer1"
     style="display:inline"
     transform="translate(0,1.0874027)">
    <rect
       style="fill:none;fill-opacity:1;stroke:#0000ff;stroke-width:0.024643;stroke-dasharray:none;stroke-opacity:1"
       id="rect9"
       width="192.9763"
       height="190.76535"
       x="0.01184941"
       y="-1.0755534"
       ry="20.98336" />
    <ellipse
       cx="168.74974"
       cy="23.162851"
       stroke="#ff0000"
       fill="transparent"
       style="display:inline;fill:none;stroke:#0000ff;stroke-width:0.0352778;stroke-miterlimit:4;stroke-dasharray:none;stroke-opacity:1"
       id="circle1003-4-2-92"
       rx="2.2056272"
       ry="2.206136" />
    <ellipse
       cx="168.74974"
       cy="165.45238"
       stroke="#ff0000"
       fill="transparent"
       style="display:inline;fill:none;stroke:#0000ff;stroke-width:0.0352778;stroke-miterlimit:4;stroke-dasharray:none;stroke-opacity:1"
       id="circle1003-4-2-92-5"
       rx="2.2056272"
       ry="2.206136" />
    <ellipse
       cx="24.249744"
       cy="165.45238"
       stroke="#ff0000"
       fill="transparent"
       style="fill:none;stroke:#0000ff;stroke-width:0.0352778;stroke-miterlimit:4;stroke-dasharray:none;stroke-opacity:1"
       id="circle1003-4-2-9"
       rx="2.2056272"
       ry="2.206136" />
    <path
       id="path1-5-1"
       style="display:inline;fill:#ff0000;fill-opacity:1;stroke:#ff0000;stroke-width:0.12087;stroke-dasharray:none;stroke-opacity:1"
       inkscape:label="Outer"
       d="M 96.499997,13.972791 A 79.439568,79.439568 0 0 0 17.060404,93.412386 79.439568,79.439568 0 0 0 96.499997,172.85198 79.439568,79.439568 0 0 0 175.9396,93.412386 79.439568,79.439568 0 0 0 96.499997,13.972791 Z m 0,16.488399 A 63.951347,63.951347 0 0 1 160.45165,94.412842 63.951347,63.951347 0 0 1 96.499997,158.36398 63.951347,63.951347 0 0 1 32.548864,94.412842 63.951347,63.951347 0 0 1 96.499997,30.46119 Z" />
    <ellipse
       cx="24.249744"
       cy="23.162851"
       stroke="#ff0000"
       fill="transparent"
       style="fill:none;stroke:#0000ff;stroke-width:0.0352778;stroke-miterlimit:4;stroke-dasharray:none;stroke-opacity:1"
       id="circle1003-4-2"
       rx="2.2056272"
       ry="2.206136" />
    <text
       xml:space="preserve"
       id="text41"
       style="white-space:pre;shape-inside:url(#rect41);display:inline;fill:#000000;fill-opacity:1;stroke:#000000;stroke-width:0.377953;stroke-dasharray:none;stroke-opacity:1"
       inkscape:label="text41"
       transform="matrix(0.26458333,0,0,0.26458333,-5.156559,-97.101136)"><tspan
         x="241.99219"
         y="728.37885"
         id="tspan6"><tspan
           style="font-size:29.3333px;-inkscape-font-specification:'sans-serif, Normal'"
           id="tspan5">Etch depth: 2mm</tspan></tspan></text>
  </g>
  <g
     inkscape:groupmode="layer"
     id="layer2"
     inkscape:label="Mid"
     style="display:none">
    <rect
       style="display:inline;fill:none;fill-opacity:1;stroke:#0000ff;stroke-width:0.024643;stroke-dasharray:none;stroke-opacity:1"
       id="rect13"
       width="192.9763"
       height="190.76535"
       x="0.011849413"
       y="0.011849345"
       ry="20.98336" />
    <ellipse
       cx="168.74974"
       cy="23.162851"
       stroke="#ff0000"
       fill="transparent"
       style="display:inline;fill:none;stroke:#0000ff;stroke-width:0.0352778;stroke-miterlimit:4;stroke-dasharray:none;stroke-opacity:1"
       id="ellipse11"
       rx="2.2056272"
       ry="2.206136"
       transform="translate(0,1.0874027)" />
    <circle
       cx="155.1655"
       cy="156.2791"
       stroke="#ff0000"
       fill="transparent"
       style="display:inline;fill:none;stroke:#0000ff;stroke-width:0.0352778;stroke-miterlimit:4;stroke-dasharray:none;stroke-opacity:1"
       id="ellipse8"
       r="2.4792531"
       transform="translate(-6.1154937,-113.4171)" />
    <path
       id="path38"
       style="display:inline;fill:#ff0000;fill-opacity:1;stroke:none;stroke-width:0.0753138;stroke-miterlimit:4;stroke-dasharray:none;stroke-opacity:1"
       d="m 149.07002,38.38895 a 4.5,4.5 0 0 0 -4.49999,4.49999 4.5,4.5 0 0 0 4.49999,4.49998 4.5,4.5 0 0 0 4.49998,-4.49998 4.5,4.5 0 0 0 -4.49998,-4.49999 z m -0.0212,1.99988 a 2.4792531,2.4792531 0 0 1 2.47944,2.47944 2.4792531,2.4792531 0 0 1 -2.47944,2.47891 2.4792531,2.4792531 0 0 1 -2.47892,-2.47891 2.4792531,2.4792531 0 0 1 2.47892,-2.47944 z" />
    <circle
       cx="155.1655"
       cy="261.37909"
       stroke="#ff0000"
       fill="transparent"
       style="display:inline;fill:none;stroke:#0000ff;stroke-width:0.0352778;stroke-miterlimit:4;stroke-dasharray:none;stroke-opacity:1"
       id="ellipse7"
       r="2.4792531"
       transform="translate(-6.1154937,-113.4171)" />
    <path
       id="path37"
       style="display:inline;fill:#ff0000;fill-opacity:1;stroke:none;stroke-width:0.0753138;stroke-miterlimit:4;stroke-dasharray:none;stroke-opacity:1"
       d="m 149.07002,143.48796 a 4.5,4.5 0 0 0 -4.49999,4.49999 4.5,4.5 0 0 0 4.49999,4.49998 4.5,4.5 0 0 0 4.49998,-4.49998 4.5,4.5 0 0 0 -4.49998,-4.49999 z m -0.0212,1.99988 a 2.4792531,2.4792531 0 0 1 2.47944,2.47944 2.4792531,2.4792531 0 0 1 -2.47944,2.47892 2.4792531,2.4792531 0 0 1 -2.47892,-2.47892 2.4792531,2.4792531 0 0 1 2.47892,-2.47944 z" />
    <ellipse
       cx="168.74974"
       cy="166.53978"
       stroke="#ff0000"
       fill="transparent"
       style="display:inline;fill:none;stroke:#0000ff;stroke-width:0.0352778;stroke-miterlimit:4;stroke-dasharray:none;stroke-opacity:1"
       id="ellipse12"
       rx="2.2056272"
       ry="2.206136" />
    <ellipse
       cx="24.249744"
       cy="166.53978"
       stroke="#ff0000"
       fill="transparent"
       style="display:inline;fill:none;stroke:#0000ff;stroke-width:0.0352778;stroke-miterlimit:4;stroke-dasharray:none;stroke-opacity:1"
       id="ellipse13"
       rx="2.2056272"
       ry="2.206136" />
    <circle
       cx="50.064495"
       cy="261.37909"
       stroke="#ff0000"
       fill="transparent"
       style="display:inline;fill:none;stroke:#0000ff;stroke-width:0.0352778;stroke-miterlimit:4;stroke-dasharray:none;stroke-opacity:1"
       id="ellipse5"
       r="2.4792531"
       transform="translate(-6.1154937,-113.4171)" />
    <path
       id="path35"
       style="display:inline;fill:#ff0000;fill-opacity:1;stroke:none;stroke-width:0.0753141;stroke-miterlimit:4;stroke-dasharray:none;stroke-opacity:1"
       d="m 43.968938,143.48796 a 4.5,4.5 0 0 0 -4.499984,4.49999 4.5,4.5 0 0 0 4.499984,4.49998 4.5,4.5 0 0 0 4.499983,-4.49998 4.5,4.5 0 0 0 -4.499983,-4.49999 z m -0.02067,1.99988 a 2.4792531,2.4792531 0 0 1 2.478919,2.47944 2.4792531,2.4792531 0 0 1 -2.478919,2.47892 2.4792531,2.4792531 0 0 1 -2.479435,-2.47892 2.4792531,2.4792531 0 0 1 2.479435,-2.47944 z" />
    <ellipse
       cx="102.61549"
       cy="208.8297"
       stroke="#ff0000"
       fill="transparent"
       style="display:inline;fill:none;stroke:#0000ff;stroke-width:0.0352778;stroke-miterlimit:4;stroke-dasharray:none;stroke-opacity:1"
       id="ellipse9"
       rx="57.999714"
       ry="58.000072"
       transform="translate(-6.1154937,-113.4171)" />
    <circle
       cx="49.866493"
       cy="156.0811"
       stroke="#ff0000"
       fill="transparent"
       style="display:inline;fill:none;stroke:#0000ff;stroke-width:0.0352778;stroke-miterlimit:4;stroke-dasharray:none;stroke-opacity:1"
       id="ellipse6"
       r="2.4801679"
       transform="translate(-6.1154937,-113.4171)" />
    <path
       id="path36"
       style="display:inline;fill:#ff0000;fill-opacity:1;stroke:none;stroke-width:0.0719668;stroke-miterlimit:4;stroke-dasharray:none;stroke-opacity:1"
       d="M 43.769983,38.19 A 4.5,4.5 0 0 0 39.27,42.68998 4.5,4.5 0 0 0 43.769983,47.18997 4.5,4.5 0 0 0 48.269967,42.68998 4.5,4.5 0 0 0 43.769983,38.19 Z m -0.02015,1.99988 a 2.4801679,2.4801679 0 0 1 2.480468,2.48046 2.4801679,2.4801679 0 0 1 -2.480468,2.47996 2.4801679,2.4801679 0 0 1 -2.479952,-2.47996 2.4801679,2.4801679 0 0 1 2.479952,-2.48046 z" />
    <ellipse
       cx="24.249744"
       cy="23.162851"
       stroke="#ff0000"
       fill="transparent"
       style="display:inline;fill:none;stroke:#0000ff;stroke-width:0.0352778;stroke-miterlimit:4;stroke-dasharray:none;stroke-opacity:1"
       id="ellipse10"
       rx="2.2056272"
       ry="2.206136"
       transform="translate(0,1.0874027)" />
    <text
       xml:space="preserve"
       transform="matrix(0.26458333,0,0,0.26458333,0.3440438,-97.364395)"
       id="text39"
       style="white-space:pre;shape-inside:url(#rect40);display:inline;fill:#000000;fill-opacity:1;stroke:#000000;stroke-width:0.377953;stroke-dasharray:none;stroke-opacity:1"><tspan
         x="241.99219"
         y="728.37885"
         id="tspan8"><tspan
           style="font-size:29.3333px;-inkscape-font-specification:'sans-serif, Normal'"
           id="tspan7">Etch depth: 1mm</tspan></tspan></text>
  </g>
</svg>
